<svg width="20" height="20" viewBox="0 0 20 20" fill="none" xmlns="http://www.w3.org/2000/svg">
<rect width="20" height="20" rx="10" fill="white"/>
<path opacity="0.987" fill-rule="evenodd" clip-rule="evenodd" d="M9.01375 1.32618C9.92 1.22493 10.4563 1.22493 11.43 1.32618C13.1537 1.5813 14.7515 2.37804 15.9925 3.60118C15.1539 4.39385 14.3263 5.19809 13.51 6.01368C11.9467 4.68868 10.2017 4.38285 8.275 5.09618C6.86167 5.74618 5.8775 6.79952 5.3225 8.25618C4.41555 7.58097 3.52042 6.89003 2.6375 6.18368C2.57614 6.15138 2.50606 6.13956 2.4375 6.14993C3.84 3.44576 6.03167 1.83743 9.0125 1.32493" fill="#F44336"/>
<path opacity="0.997" fill-rule="evenodd" clip-rule="evenodd" d="M2.43282 6.14998C2.50365 6.13915 2.57073 6.1504 2.63407 6.18373C3.51698 6.89008 4.41212 7.58102 5.31907 8.25623C5.17635 8.82381 5.08638 9.40335 5.05031 9.98748C5.08115 10.5525 5.17073 11.1071 5.31907 11.6512L2.50032 13.895C1.27282 11.33 1.25032 8.74832 2.43282 6.14998Z" fill="#FFC107"/>
<path opacity="0.999" fill-rule="evenodd" clip-rule="evenodd" d="M15.858 16.6124C14.9804 15.8384 14.0615 15.1123 13.1055 14.4374C14.0639 13.7608 14.6455 12.8324 14.8505 11.6524H10.1543V8.39117C12.8626 8.36867 15.5697 8.39159 18.2755 8.45992C18.7889 11.2474 18.196 13.7608 16.4968 15.9999C16.2948 16.2147 16.0807 16.4191 15.858 16.6124Z" fill="#448AFF"/>
<path opacity="0.993" fill-rule="evenodd" clip-rule="evenodd" d="M5.31875 11.6525C6.34375 14.2 8.22292 15.3891 10.9563 15.22C11.7235 15.1311 12.4592 14.8631 13.1038 14.4375C14.0604 15.1141 14.9779 15.8391 15.8563 16.6125C14.4646 17.863 12.6901 18.6051 10.8225 18.7175C10.3982 18.7514 9.97182 18.7514 9.5475 18.7175C6.36583 18.3425 4.01667 16.735 2.5 13.895L5.31875 11.6525Z" fill="#43A047"/>
</svg>
