<svg width="24" height="24" viewBox="0 0 24 24" fill="none" xmlns="http://www.w3.org/2000/svg">
<path d="M6.13495 21C4.95695 21 4.00195 20.02 4.00195 18.81V10.008C4.00195 9.34297 4.29695 8.71297 4.80195 8.29797L10.669 3.47997C11.0438 3.16955 11.5153 2.99969 12.002 2.99969C12.4887 2.99969 12.9601 3.16955 13.335 3.47997L19.201 8.29797C19.707 8.71297 20.002 9.34297 20.002 10.008V18.81C20.002 20.02 19.047 21 17.869 21H6.13495Z" stroke="#E6E6E6" stroke-width="1.5" stroke-linecap="round" stroke-linejoin="round"/>
<path d="M9.50195 21V15.5C9.50195 14.9696 9.71267 14.4609 10.0877 14.0858C10.4628 13.7107 10.9715 13.5 11.502 13.5H12.502C13.0324 13.5 13.5411 13.7107 13.9162 14.0858C14.2912 14.4609 14.502 14.9696 14.502 15.5V21" stroke="#E6E6E6" stroke-width="1.5" stroke-linecap="round" stroke-linejoin="round"/>
</svg>
