<svg width="24" height="24" viewBox="0 0 24 24" fill="none" xmlns="http://www.w3.org/2000/svg">
<path d="M6 7.99994H10" stroke="#E6E6E6" stroke-width="1.5" stroke-linecap="round" stroke-linejoin="round"/>
<path d="M20.833 9H18.231C16.446 9 15 10.343 15 12C15 13.657 16.447 15 18.23 15H20.833C20.917 15 20.958 15 20.993 14.998C21.533 14.965 21.963 14.566 21.998 14.065C22 14.033 22 13.994 22 13.917V10.083C22 10.006 22 9.967 21.998 9.935C21.962 9.434 21.533 9.035 20.993 9.002C20.959 9 20.917 9 20.833 9Z" stroke="#E6E6E6" stroke-width="1.5"/>
<path d="M20.963 8.99997C20.885 7.12797 20.635 5.97997 19.826 5.17197C18.655 3.99997 16.769 3.99997 12.998 3.99997H9.99805C6.22705 3.99997 4.34105 3.99997 3.17005 5.17197C1.99905 6.34397 1.99805 8.22897 1.99805 12C1.99805 15.771 1.99805 17.657 3.17005 18.828C4.34205 19.999 6.22705 20 9.99805 20H12.998C16.769 20 18.655 20 19.826 18.828C20.635 18.02 20.886 16.872 20.963 15" stroke="#E6E6E6" stroke-width="1.5"/>
<path d="M17.9902 12H18.0002" stroke="#E6E6E6" stroke-width="2" stroke-linecap="round" stroke-linejoin="round"/>
</svg>
