<svg width="12" height="12" viewBox="0 0 12 12" fill="none" xmlns="http://www.w3.org/2000/svg">
<path fill-rule="evenodd" clip-rule="evenodd" d="M2.67271 0C2.81448 0 2.95044 0.0531888 3.05068 0.147866C3.15093 0.242542 3.20725 0.370952 3.20725 0.504845V1.00969H7.83994V0.504845C7.83994 0.370952 7.89626 0.242542 7.9965 0.147866C8.09675 0.0531888 8.23271 0 8.37448 0C8.51625 0 8.65221 0.0531888 8.75246 0.147866C8.85271 0.242542 8.90902 0.370952 8.90902 0.504845V1.01507C9.01736 1.01777 9.11833 1.0227 9.21193 1.02988C9.48276 1.05008 9.73649 1.09585 9.97668 1.21163C10.3456 1.38911 10.6454 1.67235 10.8334 2.02072C10.956 2.24757 11.0044 2.4872 11.0258 2.74299C11.0472 2.98868 11.0472 3.28822 11.0472 3.64834V8.80449C11.0472 9.16461 11.0472 9.46415 11.0258 9.70985C11.0044 9.96563 10.956 10.2053 10.8334 10.4321C10.6456 10.7804 10.346 11.0636 9.97739 11.2412C9.73649 11.357 9.48276 11.4028 9.21193 11.423C8.95179 11.4431 8.63463 11.4431 8.25403 11.4431H2.79387C2.41256 11.4431 2.0954 11.4431 1.83526 11.423C1.56442 11.4028 1.3107 11.357 1.07051 11.2412C0.701853 11.0641 0.401982 10.7813 0.213817 10.4335C0.0912285 10.2059 0.0427635 9.96631 0.0213818 9.71052C1.50013e-07 9.46483 0 9.16529 0 8.80584V3.64834C0 3.28822 1.50013e-07 2.98868 0.0213818 2.74299C0.0427635 2.4872 0.0912285 2.24757 0.213817 2.02072C0.40174 1.67235 0.701636 1.38911 1.07051 1.21163C1.3107 1.09585 1.56442 1.05008 1.83526 1.02988C1.92886 1.0227 2.02983 1.01777 2.13817 1.01507V0.504845C2.13817 0.438548 2.15199 0.3729 2.17886 0.311649C2.20572 0.250398 2.24509 0.194745 2.29473 0.147866C2.34437 0.100986 2.40329 0.0637998 2.46815 0.038429C2.533 0.0130581 2.60251 0 2.67271 0ZM2.13817 2.18766V2.02476C2.06609 2.02686 1.99408 2.03067 1.92221 2.03621C1.71766 2.05169 1.62002 2.07996 1.55587 2.11092C1.38797 2.19164 1.25147 2.32055 1.16601 2.47912C1.13323 2.53971 1.10329 2.63192 1.0869 2.82511C1.0698 3.02436 1.06908 3.28284 1.06908 3.66854V4.03876H9.97811V3.66854C9.97811 3.28351 9.97811 3.02436 9.96029 2.82511C9.9439 2.63192 9.91396 2.53971 9.88118 2.47912C9.79572 2.32055 9.65922 2.19164 9.49132 2.11092C9.42717 2.07996 9.32953 2.05169 9.12427 2.03621C9.05263 2.03068 8.98086 2.02687 8.90902 2.02476V2.18766C8.90902 2.32155 8.85271 2.44996 8.75246 2.54464C8.65221 2.63932 8.51625 2.6925 8.37448 2.6925C8.23271 2.6925 8.09675 2.63932 7.9965 2.54464C7.89626 2.44996 7.83994 2.32155 7.83994 2.18766V2.01938H3.20725V2.18766C3.20725 2.32155 3.15093 2.44996 3.05068 2.54464C2.95044 2.63932 2.81448 2.6925 2.67271 2.6925C2.53094 2.6925 2.39498 2.63932 2.29473 2.54464C2.19448 2.44996 2.13817 2.32155 2.13817 2.18766ZM9.97811 4.71188H1.06908V8.7843C1.06908 9.16932 1.06908 9.42848 1.0869 9.62705C1.10329 9.82091 1.13323 9.91313 1.16601 9.97371C1.25154 10.1326 1.38767 10.2611 1.55587 10.3419C1.62002 10.3729 1.71766 10.4011 1.92221 10.4166C2.13318 10.4328 2.40686 10.4335 2.81525 10.4335H8.23194C8.63962 10.4335 8.91401 10.4335 9.12427 10.4166C9.32953 10.4011 9.42717 10.3729 9.49132 10.3419C9.65922 10.2612 9.79572 10.1323 9.88118 9.97371C9.91396 9.91313 9.9439 9.82091 9.96029 9.62705C9.97739 9.42848 9.97811 9.16932 9.97811 8.7843V4.71188Z" fill="#FDFDFD"/>
</svg>
