<svg width="24" height="24" viewBox="0 0 24 24" fill="none" xmlns="http://www.w3.org/2000/svg">
<path d="M16.502 7.5C16.502 8.69347 16.0278 9.83807 15.1839 10.682C14.34 11.5259 13.1954 12 12.002 12C10.8085 12 9.66389 11.5259 8.81997 10.682C7.97606 9.83807 7.50195 8.69347 7.50195 7.5C7.50195 6.30653 7.97606 5.16193 8.81997 4.31802C9.66389 3.47411 10.8085 3 12.002 3C13.1954 3 14.34 3.47411 15.1839 4.31802C16.0278 5.16193 16.502 6.30653 16.502 7.5ZM20.002 21V19C20.002 17.9391 19.5805 16.9217 18.8304 16.1716C18.0802 15.4214 17.0628 15 16.002 15H8.00195C6.94109 15 5.92367 15.4214 5.17353 16.1716C4.42338 16.9217 4.00195 17.9391 4.00195 19V21H20.002Z" stroke="#E6E6E6" stroke-width="2" stroke-linecap="square"/>
</svg>
