<svg width="16" height="14" viewBox="0 0 16 14" fill="none" xmlns="http://www.w3.org/2000/svg">
<path d="M16.0002 5.24305C16.0005 5.02584 15.9433 4.81241 15.8344 4.62447C15.7255 4.43652 15.5688 4.28077 15.3802 4.17305L8.64018 0.17305C8.44593 0.0597181 8.22507 0 8.00018 0C7.77529 0 7.55443 0.0597181 7.36018 0.17305L0.610179 4.17305C0.423651 4.28373 0.269131 4.44104 0.161807 4.62952C0.0544825 4.818 -0.00195312 5.03116 -0.00195312 5.24805C-0.00195312 5.46494 0.0544825 5.6781 0.161807 5.86658C0.269131 6.05506 0.423651 6.21237 0.610179 6.32305L2.53018 7.44305V10.253C2.53133 10.4727 2.58897 10.6883 2.69756 10.8792C2.80614 11.0701 2.96201 11.2298 3.15018 11.3431L7.40018 13.793C7.58994 13.8981 7.80328 13.9532 8.02018 13.9532C8.23708 13.9532 8.45042 13.8981 8.64018 13.793L12.8902 11.3431C13.0784 11.2298 13.2342 11.0701 13.3428 10.8792C13.4514 10.6883 13.509 10.4727 13.5102 10.253V7.41305L14.7502 6.68305V9.40305H16.0002V5.24305ZM12.2702 10.243L8.00018 12.703L3.78018 10.253V8.18305L7.36018 10.3131C7.55509 10.4244 7.77569 10.483 8.00018 10.483C8.22467 10.483 8.44527 10.4244 8.64018 10.3131L12.2602 8.15305L12.2702 10.243ZM8.00018 9.23305L1.25018 5.23305L8.00018 1.22305L14.7502 5.22305L8.00018 9.23305Z" fill="#E0E0E0"/>
</svg>
